<?xml version="1.0" encoding="UTF-8" standalone="no"?>
<!-- Created with Inkscape (http://www.inkscape.org/) -->

<svg
   version="1.1"
   id="svg2"
   width="511.92218"
   height="511.86441"
   viewBox="0 0 511.92218 511.86441"
   sodipodi:docname="lighthouse.svg"
   inkscape:version="1.1.1 (3bf5ae0d25, 2021-09-20, custom)"
   inkscape:export-filename="/tmp/icons/lighthouse-logo.png"
   inkscape:export-xdpi="300"
   inkscape:export-ydpi="300"
   xmlns:inkscape="http://www.inkscape.org/namespaces/inkscape"
   xmlns:sodipodi="http://sodipodi.sourceforge.net/DTD/sodipodi-0.dtd"
   xmlns:xlink="http://www.w3.org/1999/xlink"
   xmlns="http://www.w3.org/2000/svg"
   xmlns:svg="http://www.w3.org/2000/svg">
  <defs
     id="defs6">
    <clipPath
       id="clipPath8">
      <path
         d="M 76,2 V 48 H 54 V 71 H 35.580737 c -0.07818,0.665694 -0.141485,1.332869 -0.205737,2 -1.151162,12.530963 1.036422,24.087546 6.0625,33.96875 L 43.125,110 c 1.011403,1.81678 2.191241,3.52297 3.4375,5.1875 1.244725,1.66248 1.685716,2.58262 2.46875,3.6875 C 62.319911,133.81083 82.129473,141 105,141 155.64836,141 198.63299,118.56201 217.65625,68.15625 231.15302,69.54122 244.09968,66.080358 250,54.5625 240.60137,49.138835 228.52163,50.877226 221.5625,54.375 L 240,2 168,48 H 145 V 2 Z"
         id="path10" />
    </clipPath>
    <clipPath
       id="clipPath40">
      <path
         d="M 76,2 V 48 H 54 V 71 H 35.580737 c -0.07818,0.665694 -0.141485,1.332869 -0.205737,2 -1.151162,12.530963 1.036422,24.087546 6.0625,33.96875 L 43.125,110 c 1.011403,1.81678 2.191241,3.52297 3.4375,5.1875 1.244725,1.66248 1.685716,2.58262 2.46875,3.6875 C 62.319911,133.81083 82.129473,141 105,141 155.64836,141 198.63299,118.56201 217.65625,68.15625 231.15302,69.54122 244.09968,66.080358 250,54.5625 240.60137,49.138835 228.52163,50.877226 221.5625,54.375 L 240,2 168,48 H 145 V 2 Z"
         id="path38" />
    </clipPath>
    <clipPath
       id="clipPath44">
      <path
         d="M 76,2 V 48 H 54 V 71 H 35.580737 c -0.07818,0.665694 -0.141485,1.332869 -0.205737,2 -1.151162,12.530963 1.036422,24.087546 6.0625,33.96875 L 43.125,110 c 1.011403,1.81678 2.191241,3.52297 3.4375,5.1875 1.244725,1.66248 1.685716,2.58262 2.46875,3.6875 C 62.319911,133.81083 82.129473,141 105,141 155.64836,141 198.63299,118.56201 217.65625,68.15625 231.15302,69.54122 244.09968,66.080358 250,54.5625 240.60137,49.138835 228.52163,50.877226 221.5625,54.375 L 240,2 168,48 H 145 V 2 Z"
         id="path42" />
    </clipPath>
    <clipPath
       id="clipPath48">
      <path
         d="M 76,2 V 48 H 54 V 71 H 35.580737 c -0.07818,0.665694 -0.141485,1.332869 -0.205737,2 -1.151162,12.530963 1.036422,24.087546 6.0625,33.96875 L 43.125,110 c 1.011403,1.81678 2.191241,3.52297 3.4375,5.1875 1.244725,1.66248 1.685716,2.58262 2.46875,3.6875 C 62.319911,133.81083 82.129473,141 105,141 155.64836,141 198.63299,118.56201 217.65625,68.15625 231.15302,69.54122 244.09968,66.080358 250,54.5625 240.60137,49.138835 228.52163,50.877226 221.5625,54.375 L 240,2 168,48 H 145 V 2 Z"
         id="path46" />
    </clipPath>
    <clipPath
       id="clipPath52">
      <path
         d="M 76,2 V 48 H 54 V 71 H 35.580737 c -0.07818,0.665694 -0.141485,1.332869 -0.205737,2 -1.151162,12.530963 1.036422,24.087546 6.0625,33.96875 L 43.125,110 c 1.011403,1.81678 2.191241,3.52297 3.4375,5.1875 1.244725,1.66248 1.685716,2.58262 2.46875,3.6875 C 62.319911,133.81083 82.129473,141 105,141 155.64836,141 198.63299,118.56201 217.65625,68.15625 231.15302,69.54122 244.09968,66.080358 250,54.5625 240.60137,49.138835 228.52163,50.877226 221.5625,54.375 L 240,2 168,48 H 145 V 2 Z"
         id="path50" />
    </clipPath>
  </defs>
  <sodipodi:namedview
     id="namedview4"
     pagecolor="#ffffff"
     bordercolor="#666666"
     borderopacity="1.0"
     inkscape:pageshadow="2"
     inkscape:pageopacity="0.0"
     inkscape:pagecheckerboard="0"
     showgrid="false"
     fit-margin-top="0"
     fit-margin-left="0"
     fit-margin-right="0"
     fit-margin-bottom="0"
     inkscape:zoom="1.037182"
     inkscape:cx="168.72641"
     inkscape:cy="219.82641"
     inkscape:window-width="1920"
     inkscape:window-height="1033"
     inkscape:window-x="0"
     inkscape:window-y="47"
     inkscape:window-maximized="1"
     inkscape:current-layer="g8" />
  <g
     inkscape:groupmode="layer"
     inkscape:label="Image"
     id="g8"
     transform="translate(-0.90572966,-2.4420633)">
    <path
       style="fill:#000000"
       d="m 12.367011,512.85226 c -4.9199704,-1.73949 -9.0325004,-6.15239 -10.4327004,-11.19469 -1.35856998,-4.89237 -1.37638998,-36.65022 -0.0233,-41.52225 2.23497,-8.04735 10.8773804,-13.76878 18.6076204,-12.31858 4.63047,0.86868 12.36571,4.70353 18.49133,9.16734 5.94694,4.3336 11.7853,6.37163 18.23277,6.36461 7.57491,-0.008 11.52469,-1.43872 20.5419,-7.4396 11.15387,-7.42281 16.25612,-9.02552 28.582369,-8.97823 11.75254,0.0451 17.64432,1.94259 27.95691,9.00378 3.57879,2.45045 7.58112,4.86379 8.89406,5.36297 2.33362,0.88724 2.39863,0.76485 2.89794,-5.4554 0.81813,-10.19221 5.78352,-16.28139 14.22285,-17.44181 l 3.97175,-0.54613 16.20084,-129.5 16.20083,-129.5 -2.86126,-3 c -1.57369,-1.65 -3.33885,-4.26679 -3.92259,-5.8151 -1.37658,-3.65127 -1.37658,-24.71853 0,-28.3698 1.68331,-4.46482 6.74162,-9.00001 11.53502,-10.34208 l 4.40365,-1.23294 V 104.22432 78.354278 h -2.54966 c -3.75732,0 -7.98149,-2.518745 -11.11578,-6.628016 -2.25122,-2.951499 -2.77497,-4.680903 -2.80169,-9.251051 -0.0317,-5.414815 0.47427,-6.507145 13.7971,-29.788317 7.60648,-13.292062 14.6642,-24.9223484 15.6838,-25.8450816 4.33538,-3.9234601 8.44753,-4.3997491 37.98623,-4.3997491 29.71622,0 33.63799,0.4646454 38.11439,4.5157383 1.0901,0.9865273 8.14781,12.6032364 15.68381,25.8149084 13.20766,23.154928 13.70061,24.225021 13.66893,29.672328 -0.0268,4.603178 -0.54631,6.324266 -2.80169,9.281224 -3.13429,4.109271 -7.35846,6.628016 -11.11578,6.628016 H 307.867 v 25.961462 25.96144 l 3.95453,1.06485 c 4.96299,1.33639 9.90584,5.43381 11.68144,9.68343 1.65429,3.95925 1.87224,24.85063 0.3027,29.01371 -0.58374,1.54831 -2.3489,4.1651 -3.92259,5.8151 l -2.86126,3 16.20083,129.5 16.20084,129.5 3.97175,0.54613 c 8.40633,1.15589 13.17693,6.99072 14.13898,17.29313 0.59322,6.35269 0.66398,6.48532 2.98829,5.60161 1.30938,-0.49782 5.30879,-2.91005 8.88758,-5.3605 10.21573,-6.99487 16.17431,-8.9025 27.95691,-8.95035 12.06642,-0.049 17.5677,1.70475 29.00741,9.24722 4.26985,2.81522 9.61495,5.61971 11.87798,6.2322 8.68405,2.35033 19.51233,-0.20777 28.11461,-6.64187 4.46545,-3.33994 12.6112,-7.2102 16.84837,-8.0051 7.73024,-1.4502 16.37265,4.27123 18.60762,12.31858 1.37466,4.94965 1.32546,36.66504 -0.0646,41.67203 -1.40344,5.05501 -6.38326,10.03483 -11.43827,11.43827 -2.82077,0.78313 -72.69821,1.08652 -243.95308,1.05918 C 52.125831,514.2722 15.771061,514.05577 12.367041,512.85226 Z M 145.86701,488.39281 v -8.96145 l -4.24438,-1.14289 c -5.42647,-1.4612 -11.27607,-4.42966 -15.90357,-8.07047 -6.27408,-4.93632 -11.64227,-6.82203 -19.35205,-6.79788 -8.562749,0.0268 -12.088919,1.24576 -20.657959,7.14106 -10.18609,7.00779 -16.50971,9.06911 -27.84204,9.07573 -11.1612,0.007 -18.00563,-2.06302 -26.89853,-8.13326 -5.55994,-3.79517 -11.44875,-7.14938 -12.55181,-7.14938 -0.30231,0 -0.54966,7.425 -0.54966,16.5 v 16.5 h 64 63.999999 z m 205,-12.53854 v -21.5 h -94 -94 v 21.5 21.5 h 94 94 z m 145,5 c 0,-9.075 -0.35741,-16.5 -0.79424,-16.5 -0.43683,0 -3.24933,1.5612 -6.25,3.46934 -16.30743,10.36994 -27.59924,13.65699 -39.74165,11.56882 -7.88643,-1.35626 -15.55211,-4.6478 -22.2151,-9.53889 -6.41486,-4.70894 -11.92177,-6.50368 -19.87474,-6.47731 -7.53574,0.025 -11.28809,1.47054 -21.13718,8.14289 -3.5821,2.42672 -9.0946,5.22426 -12.25,6.21676 l -5.73709,1.80453 v 8.90693 8.90693 h 64 64 z M 332.21745,437.33754 c 0.51056,-0.51094 -2.00138,-22.31912 -2.84886,-24.73327 -0.66341,-1.88979 -145.50158,-1.8265 -145.50158,0.0636 0,0.72247 -0.67055,6.39764 -1.49012,12.61148 -0.81956,6.21385 -1.21779,11.73853 -0.88496,12.27707 0.62376,1.00927 149.71462,0.79279 150.72552,-0.21886 z m -5.80975,-48.73327 c -0.38077,-3.7125 -0.93198,-7.7625 -1.22491,-9 l -0.5326,-2.25 h -67.8242 c -63.73077,0 -67.85542,0.10562 -68.34144,1.75 -0.28448,0.9625 -0.82295,5.0125 -1.1966,9 l -0.67936,7.25 H 256.8543 327.1 Z m -3.57237,-29.5 c -0.0603,-4.27989 -2.79875,-22.91377 -3.46547,-23.58062 -0.36808,-0.36816 -28.51995,-0.82907 -62.5597,-1.02426 l -61.89046,-0.35487 -0.9592,2.35487 c -0.92291,2.26577 -3.09349,18.17427 -3.09349,22.6726 v 2.18228 h 66 66 l -0.0317,-2.25 z m -5.84084,-41.21081 c 0.25345,-0.25345 0.0395,-4.07845 -0.47548,-8.5 l -0.93631,-8.03919 h -58.74262 -58.74262 l -0.65556,5.75 c -0.36056,3.1625 -0.89816,6.9875 -1.19468,8.5 l -0.53912,2.75 h 60.41279 c 33.22703,0 60.62015,-0.20737 60.8736,-0.46081 z m -3.49605,-35.28919 c -0.27684,-0.9625 -1.05982,-6.8125 -1.73995,-13 l -1.23661,-11.25 H 256.83994 203.158 l -1.2326,10.75 c -0.67793,5.9125 -1.46719,11.7625 -1.7539,13 l -0.52131,2.25 h 57.1758 c 53.97822,0 57.14765,-0.0979 56.67245,-1.75 z m -6.04465,-46 c -0.35217,-2.6125 -0.89282,-6.4375 -1.20144,-8.5 l -0.56114,-3.75 h -48.83264 -48.83265 l -0.53912,2.75 c -0.29652,1.5125 -0.83412,5.3375 -1.19468,8.5 l -0.65556,5.75 h 51.22877 51.22877 z m -3.61846,-30.5 c -0.0174,-0.6875 -0.67817,-5.975 -1.46832,-11.75 -0.79015,-5.775 -1.45089,-11.0625 -1.46832,-11.75 -0.0249,-0.98058 -9.51524,-1.25 -44.03168,-1.25 -24.2,0 -44.01426,0.3375 -44.03168,0.75 -0.0174,0.4125 -0.67817,5.475 -1.46832,11.25 -0.79015,5.775 -1.45089,11.2875 -1.46832,12.25 -0.0297,1.64229 2.86101,1.75 46.96832,1.75 36.95023,0 46.99323,-0.26728 46.96832,-1.25 z m 4.03168,-50.25 v -8.5 h -51 -51 v 8.5 8.5 h 51 51 z m -17,-51 V 79.354278 h -34 -34 v 25.499992 25.5 h 34 34 z m -37.5,7.34527 c -3.13965,-1.71726 -4.5,-3.96202 -4.5,-7.42562 0,-4.960211 2.96053,-7.874187 8,-7.874187 4.90757,0 8,2.892787 8,7.483547 0,4.16917 -0.92949,5.88317 -4.07152,7.50798 -3.33713,1.72569 -4.73125,1.78355 -7.42848,0.30828 z m 54.5,-50.23349 c 0,-0.213525 -5.43868,-9.895687 -12.08595,-21.515915 l -12.08594,-21.127688 -27.04207,0.265915 -27.04207,0.265916 -11.47956,20 c -6.31376,11 -11.7043,20.5625 -11.97898,21.25 -0.39561,0.990209 10.1223,1.25 50.60758,1.25 28.10885,0 51.10699,-0.174703 51.10699,-0.388228 z m 131.18623,278.35382 c -10.28308,-11.6159 -10.85524,-11.99955 -21.46167,-14.39075 -6.35793,-1.43339 -8.66192,-7.84218 -4.65198,-12.93999 4.40918,-5.60537 17.99234,-2.58993 30.40094,6.74896 0.75682,0.5696 2.69644,-0.21879 5.45558,-2.2175 9.30656,-6.74164 22.90114,-9.33608 27.0709,-5.16632 4.84813,4.84813 1.0178,14 -5.85942,14 -4.93446,0 -12.91098,4.80302 -16.35767,9.84969 -3.98854,5.84003 -5.57137,7.07866 -9.09668,7.11851 -1.90216,0.0215 -3.68407,-0.95129 -5.5,-3.0026 z M 72.040091,246.41861 c -1.47019,-1.61461 -3.90978,-4.48796 -5.42131,-6.38522 -3.15961,-3.96593 -7.6432,-6.3456 -14.29843,-7.58893 -5.63442,-1.05263 -7.33607,-2.59266 -8.1058,-7.33598 -0.48505,-2.989 -0.14429,-4.04837 1.98809,-6.18074 5.19176,-5.19176 17.91175,-2.31738 30.12339,6.80709 0.7599,0.56779 3.15361,-0.43086 6.73932,-2.81163 6.26734,-4.16129 13.24088,-6.56893 19.026329,-6.56893 5.12083,0 7.33007,1.28398 8.63117,5.01631 2.02096,5.79733 -1.45768,10.07308 -9.32128,11.45718 -5.680449,0.99983 -8.686489,2.80689 -12.828579,7.71177 -7.17225,8.49307 -7.56444,8.81474 -10.74717,8.81474 -2.16964,0 -3.92249,-0.88939 -5.78573,-2.93566 z m 309.826919,-6.14523 c -1.375,-0.50764 -3.79198,-2.96791 -5.37106,-5.46726 -3.69787,-5.85294 -8.6397,-9.15658 -15.80613,-10.56649 -6.3593,-1.25112 -8.49267,-2.98464 -9.42792,-7.66091 -0.52433,-2.62163 -0.1235,-3.64968 2.4112,-6.18439 3.45515,-3.45515 5.37166,-3.66572 13.67637,-1.50261 5.98512,1.55892 11.29513,4.2505 15.12954,7.66899 2.08695,1.86056 2.18189,1.83518 8,-2.13907 5.57431,-3.8077 14.8796,-7.06737 20.17502,-7.06737 1.3034,0 3.73274,1.36591 5.40689,3.04006 2.5347,2.53471 2.93553,3.56276 2.4112,6.18439 -0.93525,4.67627 -3.06862,6.40979 -9.42792,7.66091 -7.16154,1.40894 -12.1061,4.71189 -15.804,10.55701 -1.71471,2.71039 -4.03617,4.9417 -5.77028,5.54621 -1.59575,0.55628 -2.94671,0.97589 -3.00213,0.93247 -0.0554,-0.0434 -1.22578,-0.49429 -2.60078,-1.00194 z m -265,-94.21312 c -4.93154,-2.49442 -6.10713,-9.57059 -2.16006,-13.00197 2.68468,-2.33393 56.8359,-19.94168 59.10964,-19.22002 2.71083,0.86038 6.05042,5.28489 6.05042,8.016 0,5.52024 -2.69876,6.93434 -31.37846,16.44171 -15.02874,4.98206 -27.72921,9.05166 -28.22326,9.04355 -0.49406,-0.008 -2.02328,-0.58378 -3.39828,-1.27927 z m 248.5,-7.67046 c -28.53618,-9.49377 -31.5,-11.06208 -31.5,-16.66822 0,-2.8075 4.92729,-8.36731 7.4154,-8.36731 3.28435,0 56.1774,18.30743 58.0346,20.08703 4.23102,4.05424 1.59216,11.97619 -4.45,13.35903 -1.66643,0.3814 -11.50251,-2.4229 -29.5,-8.41053 z M 340.13694,95.581899 c -2.60709,-0.422615 -6.26993,-4.696229 -6.26993,-7.315427 0,-2.744435 2.06656,-6.717625 3.88545,-7.470198 5.66096,-2.34225 54.91583,-18.441996 56.42064,-18.441996 1.01627,0 3.21578,1.368029 4.88782,3.040064 2.54424,2.544244 2.93895,3.56359 2.42007,6.25 -0.341,1.765465 -1.52478,3.962036 -2.63063,4.881268 -1.10584,0.919233 -13.81698,5.567358 -28.24698,10.329166 -29.96096,9.886925 -27.55798,9.198591 -30.46644,8.727123 z M 141.61633,86.497328 c -14.16287,-4.793706 -26.41532,-9.38048 -27.22767,-10.192832 -0.81236,-0.812352 -1.7647,-2.915448 -2.11632,-4.673547 -0.53672,-2.683625 -0.1515,-3.684352 2.40076,-6.236607 1.67204,-1.672035 3.86204,-3.040064 4.86667,-3.040064 1.00463,0 14.0849,4.086004 29.06728,9.08001 21.86093,7.286807 27.63755,9.584565 29.25032,11.634859 2.56891,3.265841 2.54892,6.329824 -0.0629,9.650272 -3.297,4.191462 -7.59594,3.45211 -36.1781,-6.222091 z"
       id="path21315" />
    <path
       style="fill:#7f8d93;fill-opacity:1;stroke:#7f8d93;stroke-width:0.0340879;stroke-opacity:1"
       d="m 277.56995,18.477031 c -15.55302,0.129212 -31.10868,0.168984 -46.65887,0.49309 -0.98479,-0.04855 -2.21895,-0.0088 -2.53799,1.141113 -7.57808,13.344788 -15.33787,26.587899 -22.76486,40.017594 -0.74961,0.885748 -0.0727,2.194266 1.02363,2.291945 4.91932,0.661073 9.90936,0.582855 14.86451,0.68329 26.98953,0.117686 53.98069,0.190375 80.96972,-0.04614 1.87462,-0.133705 3.83089,0.139822 5.65922,-0.305267 1.18277,-0.901846 -0.13178,-2.214521 -0.50397,-3.18261 -6.90872,-12.518485 -14.09222,-24.884068 -21.17651,-37.303896 -0.82904,-1.133024 -1.20085,-2.699873 -2.35191,-3.54378 -2.11312,-0.45684 -4.37135,-0.152847 -6.52297,-0.245339 z"
       id="path25818" />
    <path
       style="fill:#9d9d9d;fill-opacity:1;stroke:#9d9d9d;stroke-width:0.19283;stroke-opacity:1"
       d="m 205.86926,146.73244 c -0.18116,5.82846 -0.62038,12.06414 0.19773,17.78971 33.87977,0.4699 67.90205,0.0668 101.83656,0.20149 2.32956,-4.57123 0.32577,-11.462 0.99993,-16.90842 -3.45723,-3.39371 -11.2864,-0.54273 -16.42635,-1.482 -28.60314,0 -57.20629,0 -85.80943,0 z"
       id="path25857" />
    <path
       style="fill:#9d9d9d;fill-opacity:1;stroke:#9d9d9d;stroke-width:0.19283;stroke-opacity:1"
       d="m 162.48247,454.29658 c -0.20481,14.51017 -0.59851,29.41381 0.19773,43.82179 62.48287,0.47016 125.10829,0.0672 187.64599,0.20149 2.33259,-4.731 0.33447,-11.77825 0.99993,-17.39049 -0.26455,-8.91247 0.53016,-18.075 -0.39922,-26.83052 -62.48288,-0.47016 -125.10829,-0.0671 -187.64599,-0.20149 z"
       id="path28041" />
    <path
       style="fill:#02a8f3;fill-opacity:1;stroke:#02a8f3;stroke-width:0.19283;stroke-opacity:1"
       d="m 104.48842,462.65946 c -15.425759,0.77775 -26.024899,15.64535 -41.526289,16.06667 -13.45008,1.84755 -26.37561,-3.53836 -37.14006,-11.23187 -4.42583,-3.78421 -10.38922,-5.729 -8.16373,2.63925 0.28246,9.29302 -0.55393,18.85017 0.39922,27.98486 42.58101,0.46974 85.304499,0.0667 127.940189,0.20149 2.26009,-4.44006 -0.0113,-11.18679 0.50903,-16.50015 0.17799,-5.23514 -7.571,-4.08141 -10.79681,-6.67555 -10.14001,-4.94415 -19.05402,-13.49851 -31.22155,-12.4847 z"
       id="path34152" />
    <path
       style="fill:#02a8f3;fill-opacity:1;stroke:#02a8f3;stroke-width:0.19283;stroke-opacity:1"
       d="m 407.56323,462.62368 c -14.66004,0.39067 -25.1556,12.41185 -38.78447,16.18342 -1.37393,5.9709 -1.15248,13.11016 -0.83045,19.29244 42.67813,0.51371 85.51951,0.073 128.26031,0.22032 2.23265,-4.50016 -0.12553,-11.29449 0.33143,-16.66926 -0.75789,-5.5086 0.41934,-11.83616 -1.68161,-16.89524 -7.71486,2.26299 -14.34452,7.99448 -22.06626,10.70546 -15.2037,7.01281 -33.49157,2.80451 -46.61631,-6.80555 -5.61209,-3.39827 -11.92188,-6.19523 -18.61264,-6.03159 z"
       id="path34191" />
    <path
       style="fill:#f34335;fill-opacity:1;stroke:#f34335;stroke-width:0.19283;stroke-opacity:1"
       d="m 276.8963,376.91217 c -29.24813,0.40338 -58.59539,-0.43225 -87.78104,1.33324 -3.16346,4.68106 -1.8651,11.39588 -2.99226,16.78413 4.55757,2.52321 11.80047,0.37935 17.38673,1.09032 40.99273,0 81.98546,0 122.9782,0 2.04999,-3.66915 -0.23171,-9.43649 -0.29565,-13.96512 0.6664,-4.18204 -3.21033,-5.27896 -6.54242,-4.92857 -14.24119,-0.53525 -28.50536,-0.26862 -42.75356,-0.314 z"
       id="path38637" />
    <path
       style="fill:#f34335;fill-opacity:1;stroke:#f34335;stroke-width:0.19283;stroke-opacity:1"
       d="m 197.24463,301.49937 c -0.19288,5.28202 -1.45894,10.74642 -1.6722,15.89343 6.11019,2.48703 13.47349,0.78972 20.00609,1.47923 33.66692,0.21424 67.33499,0.0753 101.00238,0.11576 2.40429,-4.47578 -0.18752,-11.08823 -0.1265,-16.36255 -2.4689,-4.53302 -10.83047,-0.82357 -15.57485,-2.02788 -34.21354,0 -68.42709,0 -102.64064,0 l -0.71409,0.64782 z"
       id="path38676" />
    <path
       style="fill:#f34335;fill-opacity:1;stroke:#f34335;stroke-width:0.19283;stroke-opacity:1"
       d="m 207.12153,224.81924 c -0.42101,5.56679 -2.02453,11.25612 -1.76259,16.75213 34.05395,0.6633 68.34901,0.0946 102.49565,0.28435 1.84583,-3.34372 -0.88436,-8.54043 -0.81226,-12.69858 1.16765,-8.1608 -8.31065,-4.40267 -13.14534,-5.20977 -28.59435,0 -57.18871,0 -85.78306,0 l -0.72432,0.63635 z"
       id="path38715" />
    <path
       style="fill:#ffea3a;fill-opacity:1;stroke:#ffea3a;stroke-width:0.19283;stroke-opacity:1"
       d="m 222.25983,79.241876 c -0.20459,17.08121 -0.59878,34.555994 0.19772,51.534994 22.6313,0.47024 45.40516,0.0671 68.09128,0.20149 2.33259,-4.731 0.33448,-11.77825 0.99993,-17.3905 -0.26519,-11.48338 0.53102,-23.217322 -0.39922,-34.54371 -22.63129,-0.470239 -45.40516,-0.0671 -68.09127,-0.201493 z m 34.5908,18.332049 c 6.52221,-0.351374 10.34403,9.021205 4.63432,12.812655 -4.43688,4.85782 -11.82803,0.16294 -11.85981,-5.58153 -0.29042,-3.99137 3.30854,-7.314556 7.22549,-7.231125 z"
       id="path41872" />
    <g
       id="g42748"
       transform="rotate(21.933174,458.35267,-7.3860906)">
      <path
         d="m 612.78227,420.81787 h 12.37006 v 12.64527 h 6.25469 c 2.88832,0 5.85921,-0.51456 8.59456,-1.44141 1.34405,-0.45574 2.85268,-1.08996 4.17849,-1.88759 -1.74621,-2.27988 -2.63771,-5.15864 -2.90021,-7.99626 -0.35636,-3.8595 0.42214,-8.88313 3.03435,-11.90385 l 1.30031,-1.50399 1.54947,1.24555 c 3.90122,3.1343 7.18213,7.51386 7.76042,12.50649 4.6974,-1.38172 10.21241,-1.05491 14.35295,1.33479 l 1.69869,0.98016 -0.89412,1.74504 c -3.5017,6.8344 -10.82232,8.95147 -17.97952,8.57684 -10.70987,26.67488 -34.02649,39.30364 -62.29777,39.30364 -14.60588,0 -28.00648,-5.45997 -35.63739,-18.41873 -0.4474,-0.80497 -0.83053,-1.64669 -1.23686,-2.47343 -2.57946,-5.7042 -3.4362,-11.9531 -2.85499,-18.19678 l 0.17441,-1.87021 h 10.57776 v -12.64527 h 12.37006 v -12.37006 h 24.74012 v -12.37006 h 14.84432 v 24.74012"
         id="path14"
         style="fill:#394d54;stroke-width:0.54098" />
      <g
         clip-path="url(#clipPath8)"
         id="g16"
         transform="matrix(0.54098048,0,0,0.54098048,532.99435,396.07775)">
        <g
           id="g18">
          <g
             transform="translate(0,-22.866)"
             id="g20">
            <path
               d="m 123.85901,3.8110794 h 19.81751 V 23.62805 h -19.81751 z"
               id="path22"
               style="fill:#00acd3" />
            <path
               d="m 123.85901,26.676485 h 19.81751 v 19.818043 h -19.81751 z"
               id="path24"
               style="fill:#20c2ef" />
            <path
               d="M 126.29235,21.976904 V 5.4611548 M 129.2642,21.976904 V 5.4611548 m 3.00184,16.5157492 V 5.4611548 m 3.00344,16.5157492 V 5.4611548 M 138.2724,21.976904 V 5.4611548 m 2.97131,16.5157492 V 5.4611548"
               id="path26"
               style="stroke:#394d54;stroke-width:1.56" />
            <use
               transform="translate(0,22.866)"
               id="use28"
               xlink:href="#path26"
               x="0"
               y="0"
               width="100%"
               height="100%" />
          </g>
          <use
             transform="matrix(1,0,0,-1,22.866,4.572651)"
             id="use30"
             xlink:href="#g20"
             x="0"
             y="0"
             width="100%"
             height="100%" />
        </g>
        <use
           transform="translate(-91.464,45.732)"
           id="use32"
           xlink:href="#g18"
           x="0"
           y="0"
           width="100%"
           height="100%" />
        <use
           transform="translate(-45.732,45.732)"
           id="use34"
           xlink:href="#g18"
           x="0"
           y="0"
           width="100%"
           height="100%" />
        <use
           transform="translate(0,45.732)"
           id="use36"
           xlink:href="#g18"
           x="0"
           y="0"
           width="100%"
           height="100%" />
      </g>
      <path
         d="m 221.57014,54.379649 c 1.53332,-11.915247 -7.38383,-21.274779 -12.91407,-25.71836 -6.37269,7.367765 -7.36295,26.677556 2.63498,34.807431 -5.57952,4.956117 -17.33731,9.448435 -29.37574,9.448435 L 34,72.917155 C 32.829255,85.484184 34,146 34,146 h 217 l -0.98657,-91.424 c -9.39863,-5.423665 -21.48419,-3.694326 -28.44332,-0.196552"
         clip-path="url(#clipPath8)"
         id="path69"
         style="fill:#17b5eb"
         transform="matrix(0.54098048,0,0,0.54098048,532.99435,396.07775)" />
      <path
         d="m 34,89 v 57 H 251 V 89"
         clip-path="url(#clipPath8)"
         id="path40"
         style="fill-opacity:0.17"
         transform="matrix(0.54098048,0,0,0.54098048,532.99435,396.07775)" />
      <path
         d="M 111.23736,140.88997 C 97.697741,134.4648 90.265707,125.73081 86.130611,116.19562 L 45,118 l 21,28 45.23736,-5.11003"
         clip-path="url(#clipPath8)"
         id="path72"
         style="fill:#d4edf1"
         transform="matrix(0.54098048,0,0,0.54098048,532.99435,396.07775)" />
      <path
         d="m 222.5,53.9375 v 0.03125 c -20.86119,26.889144 -50.78312,50.37872 -82.90625,62.71875 -28.65478,11.00767 -53.638381,11.06039 -70.875,2.21875 -1.85607,-1.04832 -3.675701,-2.21152 -5.5,-3.3125 C 50.582097,106.76175 43.464274,92.152308 44.0625,72.90625 H 34 V 146 H 251 V 50 h -25 z"
         clip-path="url(#clipPath8)"
         id="path44"
         style="fill-opacity:0.085"
         transform="matrix(0.54098048,0,0,0.54098048,532.99435,396.07775)" />
      <path
         d="m 557.67659,459.38937 c 7.66307,0.41943 15.84123,0.49464 22.97476,-1.74128"
         id="path75"
         style="fill:none;stroke:#394d54;stroke-width:1.83933;stroke-linecap:round" />
      <path
         d="m 588.26646,453.94062 c 0,1.63321 -1.32407,2.95728 -2.95728,2.95728 -1.63349,0 -2.95785,-1.32407 -2.95785,-2.95728 0,-1.6332 1.32436,-2.95785 2.95785,-2.95785 1.63321,0 2.95728,1.32465 2.95728,2.95785 z"
         id="path48"
         style="fill:#d4edf1;stroke-width:0.54098" />
      <path
         d="m 586.0761,451.96524 c -0.25815,0.14922 -0.43285,0.42881 -0.43285,0.74867 0,0.47747 0.38707,0.86398 0.86455,0.86398 0.32711,0 0.61133,-0.18167 0.75822,-0.44996 0.10373,0.25004 0.16138,0.5247 0.16138,0.81269 0,1.16965 -0.94829,2.11793 -2.11822,2.11793 -1.16963,0 -2.1185,-0.94828 -2.1185,-2.11793 0,-1.17021 0.94887,-2.11879 2.1185,-2.11879 0.27061,0 0.52876,0.051 0.76692,0.14341 z"
         id="path78"
         style="fill:#394d54;stroke-width:0.54098" />
    </g>
    <path
       style="fill:#ffffff;fill-opacity:1;stroke:#ffffff;stroke-width:0.0964151;stroke-opacity:1"
       d="m 201.68267,255.31545 c -1.48145,8.60356 -1.88582,17.4659 -3.66641,26.06409 1.20008,2.53128 5.34757,0.55174 7.73485,1.16631 35.45743,-0.19819 70.92862,0.1027 106.37675,-0.61644 2.34338,-1.3425 0.41305,-4.63378 0.54818,-6.71021 -0.96265,-6.45643 -1.27462,-13.14272 -2.4656,-19.52263 -2.89885,-1.12299 -6.6776,-0.162 -9.90471,-0.49434 -32.62421,-0.0746 -65.24843,-0.14924 -97.87264,-0.22386 l -0.43975,0.19753 z"
       id="path43092"
       transform="translate(0.90572966,2.4420633)" />
    <path
       style="fill:#ffffff;fill-opacity:1;stroke:#ffffff;stroke-width:0.0964151;stroke-opacity:1"
       d="m 236.02019,178.38675 c -8.01897,0.15221 -16.07011,-0.27177 -24.06423,0.49714 -2.03652,1.80252 -0.97541,5.50878 -1.78399,8.05196 -0.48421,5.53707 -1.74222,11.0822 -1.80992,16.61298 1.04271,2.50335 4.65668,1.16188 6.74812,1.74847 27.5929,0.80052 55.21815,0.57923 82.81058,-0.15536 1.71157,-0.43315 5.62149,0.73735 5.46195,-2.08742 -0.6723,-7.79678 -1.38371,-15.65382 -2.95082,-23.31852 -1.96576,-1.64275 -5.10283,-0.5907 -7.50325,-1.0263 -18.96712,-0.31726 -37.93909,-0.30562 -56.90844,-0.32295 z"
       id="path43131"
       transform="translate(0.90572966,2.4420633)" />
    <path
       style="fill:#ffffff;fill-opacity:1;stroke:#ffffff;stroke-width:0.0964151;stroke-opacity:1"
       d="m 193.37346,331.03708 c -2.86374,7.72405 -3.32614,16.15263 -4.12046,24.303 -1.3786,3.72332 1.28044,5.1259 4.63737,4.32399 42.67781,0 85.35561,0 128.03341,0 2.06254,-1.36035 0.30159,-4.69412 0.47868,-6.91739 -0.91267,-6.45647 -1.45574,-13.04408 -2.98981,-19.36984 -2.46087,-1.85282 -6.03925,-0.96054 -8.93534,-1.40762 -38.34432,-0.87897 -76.71264,-0.28551 -115.05455,-1.17297 -0.71789,-0.0423 -1.40451,-0.16768 -2.0493,0.24083 z"
       id="path43170"
       transform="translate(0.90572966,2.4420633)" />
    <path
       style="fill:#ffffff;fill-opacity:1;stroke:#ffffff;stroke-width:0.0964151;stroke-opacity:1"
       d="m 243.46223,408.00815 c -19.66001,0.16557 -39.34187,0.25028 -58.9793,1.12845 -3.65901,-0.18137 -2.20699,4.53561 -2.98355,6.8351 -0.54177,6.43323 -1.95192,12.88917 -1.85283,19.32926 2.13144,1.53893 5.39049,0.30608 7.92882,0.79091 44.91397,0.60117 89.8395,0.4953 134.75287,-0.075 3.14904,-0.32567 6.52065,0.2309 9.52893,-0.65843 0.18359,-8.25362 -1.20721,-16.62326 -2.47346,-24.8203 -0.72645,-2.46592 -4.276,-1.15037 -6.14364,-1.70704 -26.57787,-0.90262 -53.18757,-0.84949 -79.77784,-0.82291 z"
       id="path43209"
       transform="translate(0.90572966,2.4420633)" />
  </g>
</svg>
